<svg width="40" height="37" viewBox="0 0 40 37" fill="none" xmlns="http://www.w3.org/2000/svg">
<path d="M15.375 0.5C18.173 0.499943 20.9123 1.25792 23.2679 2.684C25.6235 4.11009 27.4965 6.14441 28.6647 8.54562C29.8329 10.9468 30.2472 13.6141 29.8586 16.2311C29.4699 18.848 28.2946 21.3047 26.472 23.3098L39.171 35.3033L37.5803 36.8056L24.879 24.81C23.0877 26.2567 20.9528 27.2732 18.6559 27.7727C16.3591 28.2722 13.9684 28.2401 11.6876 27.679C9.40672 27.1179 7.30324 26.0445 5.55628 24.5502C3.80931 23.0559 2.47063 21.185 1.65424 19.0968C0.837855 17.0086 0.567947 14.7649 0.867507 12.557C1.16707 10.349 2.02722 8.24215 3.37471 6.4158C4.7222 4.58945 6.5171 3.09773 8.60654 2.0677C10.696 1.03766 13.0181 0.499829 15.375 0.5ZM15.375 2.625C12.093 2.625 8.94535 3.85636 6.62458 6.04819C4.30382 8.24002 3.00003 11.2128 3.00003 14.3125C3.00003 17.4122 4.30382 20.385 6.62458 22.5768C8.94535 24.7686 12.093 26 15.375 26C18.6571 26 21.8047 24.7686 24.1255 22.5768C26.4462 20.385 27.75 17.4122 27.75 14.3125C27.75 11.2128 26.4462 8.24002 24.1255 6.04819C21.8047 3.85636 18.6571 2.625 15.375 2.625Z" fill="black"/>
</svg>
